Forbidden Planet 1956 BluRay 1080p DTS x264-LoNeWoLf

Encoded by Tequila-Bob a.k.a. bobnjeff a.k.a.LoNeWoLf

Source - NTSC BluRay Disc.
 
http://www.imdb.com/title/tt0049223/

98 min  -  Mystery | Sci-Fi   -   15 March 1956 (USA)

Genres:Mystery | Sci-Fi 

Rated: G

[img]http://torrent-stats.info/217d/22892afa.png[/img]


7.7/10 X  Users: 7.7/10 (15,860 votes) 222 reviews | Critics: 93 reviews 
A starship crew goes to investigate the silence of a planet's colony only to find two survivors and a deadly secret that one of them has. 

Director: Fred M. Wilcox
Writers: Cyril Hume (screenplay), Irving Block (story)
Stars:Walter Pidgeon, Anne Francis and Leslie Nielsen 

Format : Matroska 
File size : 8.04 GiB 
Duration : 1h 38mn 
Overall bit rate : 11.7 Mbps 
Encoded date : UTC 2010-11-18 12:29:46 
Writing application : mkvmerge v4.4.0 ('Die Wiederkehr') built on Oct 31 2010 21:52:48 
Writing library : libebml v1.0.0 + libmatroska v1.0.0 

Video 
ID : 1 
Format : AVC 
Format/Info : Advanced Video Codec 
Format profile : High@L4.1 
Format settings, CABAC : Yes 
Format settings, ReFrames : 7 frames 
Muxing mode : Container profile=Unknown@4.1 
Codec ID : V_MPEG4/ISO/AVC 
Duration : 1h 38mn 
Bit rate : 10.8 Mbps 
Width : 1 920 pixels 
Height : 800 pixels 
Display aspect ratio : 2.40:1 
Frame rate : 23.976 fps 
Color space : YUV 
Chroma subsampling : 4:2:0 
Bit depth : 8 bits 
Scan type : Progressive 
Bits/(Pixel*Frame) : 0.293 
Stream size : 7.36 GiB (92%) 
Writing library : x264 core 98 r1649 c54c47d 
Encoding settings : cabac=1 / ref=8 / deblock=1:0:0 / analyse=0x3:0x133 / me=umh / subme=9 / psy=1 / psy_rd=1.00:0.15 / mixed_ref=1 / me_range=24 / chroma_me=1 / trellis=1 / 8x8dct=1 / cqm=0 / deadzone=21,11 / fast_pskip=1 / chroma_qp_offset=-3 / threads=6 / sliced_threads=0 / nr=0 / decimate=0 / interlaced=0 / constrained_intra=0 / bframes=5 / b_pyramid=1 / b_adapt=1 / b_bias=0 / direct=1 / weightb=1 / weightp=2 / keyint=250 / keyint_min=25 / scenecut=40 / intra_refresh=0 / rc_lookahead=50 / rc=2pass / mbtree=1 / bitrate=10801 / ratetol=1.0 / qcomp=0.60 / qpmin=10 / qpmax=51 / qpstep=4 / cplxblur=20.0 / qblur=0.5 / ip_ratio=1.40 / aq=1:1.50 
Language : English 

Audio 
ID : 2 
Format : DTS 
Format/Info : Digital Theater Systems 
Codec ID : A_DTS 
Duration : 1h 38mn 
Bit rate mode : Constant 
Bit rate : 755 Kbps 
Channel(s) : 6 channels 
Channel positions : Front: L C R, Side: L R, LFE 
Sampling rate : 48.0 KHz 
Bit depth : 24 bits 
Video delay : 10ms 
Stream size : 532 MiB (6%) 
Title : 3/2+1 
Language : English 

Text 
Language : English 
Language : French 
Language : German 
Language : Spanish 
Language : Spanish 
Language : Portuguese 
Language : Norwegian 
Language : Portuguese 

Menu Chapters 24

See the full size 1980x800 PNG files at the link below
 
http://s1015.photobucket.com/albums/af279/tequila-bob/ForbiddenPlanet/
